<svg xmlns="http://www.w3.org/2000/svg" viewBox="0 0 300 300">
  <path d="M150 185c-19.5 0-35.3-16-35.3-35.5s16-35.4 35.3-35.4c19.5 0 35.4 16 35.4 36s-16 35-35.4 35zm0-52.3c-9.3 0-17 7.6-17 17 0 9.2 7.7 16.8 17 16.8s17-7.6 17-17c0-9.2-7.7-16.8-17-16.8z"/>
  <path d="M150 3.2C69 3.2 3.6 68.7 3.6 149.6S69 296 150 296s146.4-65.6 146.4-146.4S231 3.2 150 3.2zm-24 250.3c-1.3 4-5 6.3-8.8 6.3-1 0-2-.2-3-.5-12.8-4.3-24.6-11-35-19.6-12-10-22-22.6-28.5-36.5-2.2-4.6-.3-10 4.3-12.3 4.6-3 10-1 12.3 4 5.5 11 13.7 22 23.7 30 8.3 7 18 12.5 29 16 5 1.8 7.3 7 6 11.8zm24-46c-32 0-58-26-58-58s26-57.8 58-57.8 58 26 58 58-26 57.8-58 57.8zm105-94c-1.3.7-2.6 1-4 1-3.4 0-6.8-2-8.3-5.2-5.5-11.6-13.7-22-23.6-30.3-8-7.2-18-12.7-29-16.3-5-1.6-7-6.8-6-11.7 2-4.8 7-7.5 12-5.8 13 4.3 25 11 35 19.6 12 10 22 22.6 29 36.5 2 4.6 0 10-4.3 12.3z"/>
</svg>