<svg id="Layer_1" data-name="Layer 1" xmlns="http://www.w3.org/2000/svg" viewBox="0 0 392 328.94"><defs><style>.cls-1{fill:#363740;stroke:#fff;stroke-miterlimit:10;}</style></defs><title>telegram</title><path id="path9" class="cls-1" d="M425.1,94.2,78.75,227.79c-23.64,9.48-23.5,22.67-4.31,28.55l86.38,27,33.05,101.33c4,11.09,2,15.49,13.68,15.49,9,0,13-4.1,18-9,3.18-3.12,22.08-21.49,43.19-42l89.85,66.39c16.53,9.12,28.47,4.4,32.59-15.36l59-277.94C456.19,98,440.92,87,425.1,94.2ZM174.38,277.1l194.7-122.84c9.72-5.89,18.63-2.73,11.31,3.77L213.68,308.45l-6.49,69.24Z" transform="translate(-60 -91.53)"/></svg>